<svg width="46" height="46" viewBox="0 0 46 46" fill="none" xmlns="http://www.w3.org/2000/svg">
<path d="M32.5835 3.8335H13.4168C8.1241 3.8335 3.8335 8.1241 3.8335 13.4168V32.5835C3.8335 37.8762 8.1241 42.1668 13.4168 42.1668H32.5835C37.8762 42.1668 42.1668 37.8762 42.1668 32.5835V13.4168C42.1668 8.1241 37.8762 3.8335 32.5835 3.8335Z" stroke="white" stroke-width="2" stroke-linecap="round" stroke-linejoin="round"/>
<path d="M30.6664 21.7926C30.903 23.3877 30.6305 25.0168 29.8878 26.4482C29.1451 27.8796 27.97 29.0403 26.5295 29.7653C25.0891 30.4903 23.4568 30.7426 21.8647 30.4865C20.2726 30.2303 18.8018 29.4786 17.6615 28.3383C16.5213 27.198 15.7696 25.7273 15.5134 24.1352C15.2572 22.5431 15.5096 20.9107 16.2346 19.4703C16.9596 18.0299 18.1203 16.8548 19.5517 16.1121C20.983 15.3693 22.6121 15.0969 24.2073 15.3334C25.8344 15.5747 27.3407 16.3329 28.5038 17.496C29.667 18.6591 30.4252 20.1655 30.6664 21.7926Z" stroke="white" stroke-width="2" stroke-linecap="round" stroke-linejoin="round"/>
<path d="M33.5415 12.4585H33.5607" stroke="white" stroke-width="2" stroke-linecap="round" stroke-linejoin="round"/>
</svg>
