<svg width="128" height="40" viewBox="0 0 128 40" fill="none" xmlns="http://www.w3.org/2000/svg">
<circle cx="20" cy="20" r="20" fill="white"/>
<path d="M46.1009 29V14.4545H49.6165V26.1449H55.6676V29H46.1009ZM70.6499 21.7273C70.6499 23.3277 70.3421 24.6842 69.7266 25.7969C69.111 26.9096 68.2777 27.7547 67.2266 28.3324C66.1802 28.91 65.0059 29.1989 63.7038 29.1989C62.397 29.1989 61.2204 28.9077 60.174 28.3253C59.1276 27.7429 58.2966 26.8977 57.6811 25.7898C57.0703 24.6771 56.7649 23.3229 56.7649 21.7273C56.7649 20.1269 57.0703 18.7704 57.6811 17.6577C58.2966 16.545 59.1276 15.6998 60.174 15.1222C61.2204 14.5445 62.397 14.2557 63.7038 14.2557C65.0059 14.2557 66.1802 14.5445 67.2266 15.1222C68.2777 15.6998 69.111 16.545 69.7266 17.6577C70.3421 18.7704 70.6499 20.1269 70.6499 21.7273ZM67.0561 21.7273C67.0561 20.7803 66.9212 19.9801 66.6513 19.3267C66.3861 18.6733 66.0026 18.1785 65.5007 17.8423C65.0036 17.5062 64.4046 17.3381 63.7038 17.3381C63.0078 17.3381 62.4089 17.5062 61.907 17.8423C61.4051 18.1785 61.0192 18.6733 60.7493 19.3267C60.4841 19.9801 60.3516 20.7803 60.3516 21.7273C60.3516 22.6742 60.4841 23.4744 60.7493 24.1278C61.0192 24.7812 61.4051 25.276 61.907 25.6122C62.4089 25.9484 63.0078 26.1165 63.7038 26.1165C64.4046 26.1165 65.0036 25.9484 65.5007 25.6122C66.0026 25.276 66.3861 24.7812 66.6513 24.1278C66.9212 23.4744 67.0561 22.6742 67.0561 21.7273ZM82.2479 19.206C82.1674 18.9077 82.049 18.6449 81.8928 18.4176C81.7365 18.1856 81.5447 17.9891 81.3175 17.8281C81.0902 17.6671 80.8298 17.5464 80.5362 17.4659C80.2427 17.3807 79.9207 17.3381 79.5703 17.3381C78.8648 17.3381 78.254 17.5085 77.7379 17.8494C77.2266 18.1903 76.8312 18.6875 76.5518 19.3409C76.2725 19.9896 76.1328 20.7779 76.1328 21.706C76.1328 22.6387 76.2678 23.4342 76.5376 24.0923C76.8075 24.7505 77.1982 25.2524 77.7095 25.598C78.2209 25.9437 78.8411 26.1165 79.5703 26.1165C80.2143 26.1165 80.7588 26.0123 81.2038 25.804C81.6536 25.5909 81.9946 25.2902 82.2266 24.902C82.4586 24.5137 82.5746 24.0568 82.5746 23.5312L83.228 23.6094H79.6911V21.0455H85.9624V22.9702C85.9624 24.2723 85.6854 25.3873 85.1314 26.3153C84.5821 27.2434 83.8246 27.956 82.8587 28.4531C81.8975 28.9503 80.7919 29.1989 79.5419 29.1989C78.1546 29.1989 76.9354 28.8982 75.8842 28.2969C74.8331 27.6955 74.014 26.8385 73.4268 25.7259C72.8397 24.6084 72.5462 23.2827 72.5462 21.7486C72.5462 20.5554 72.7237 19.4972 73.0788 18.5739C73.4339 17.6458 73.9287 16.8598 74.5632 16.2159C75.2024 15.572 75.9411 15.0843 76.7791 14.7528C77.6219 14.4214 78.5286 14.2557 79.4993 14.2557C80.3421 14.2557 81.1257 14.3764 81.8501 14.6179C82.5793 14.8594 83.2232 15.2003 83.782 15.6406C84.3454 16.081 84.8023 16.6042 85.1527 17.2102C85.5031 17.8163 85.7209 18.4815 85.8061 19.206H82.2479ZM101.763 21.7273C101.763 23.3277 101.455 24.6842 100.84 25.7969C100.224 26.9096 99.391 27.7547 98.3398 28.3324C97.2934 28.91 96.1192 29.1989 94.8171 29.1989C93.5103 29.1989 92.3337 28.9077 91.2873 28.3253C90.2409 27.7429 89.4099 26.8977 88.7944 25.7898C88.1836 24.6771 87.8782 23.3229 87.8782 21.7273C87.8782 20.1269 88.1836 18.7704 88.7944 17.6577C89.4099 16.545 90.2409 15.6998 91.2873 15.1222C92.3337 14.5445 93.5103 14.2557 94.8171 14.2557C96.1192 14.2557 97.2934 14.5445 98.3398 15.1222C99.391 15.6998 100.224 16.545 100.84 17.6577C101.455 18.7704 101.763 20.1269 101.763 21.7273ZM98.1694 21.7273C98.1694 20.7803 98.0344 19.9801 97.7646 19.3267C97.4994 18.6733 97.1159 18.1785 96.614 17.8423C96.1168 17.5062 95.5179 17.3381 94.8171 17.3381C94.1211 17.3381 93.5221 17.5062 93.0202 17.8423C92.5183 18.1785 92.1325 18.6733 91.8626 19.3267C91.5974 19.9801 91.4648 20.7803 91.4648 21.7273C91.4648 22.6742 91.5974 23.4744 91.8626 24.1278C92.1325 24.7812 92.5183 25.276 93.0202 25.6122C93.5221 25.9484 94.1211 26.1165 94.8171 26.1165C95.5179 26.1165 96.1168 25.9484 96.614 25.6122C97.1159 25.276 97.4994 24.7812 97.7646 24.1278C98.0344 23.4744 98.1694 22.6742 98.1694 21.7273Z" fill="white"/>
</svg>
