<svg width="23" height="18" viewBox="0 0 23 18" fill="none" xmlns="http://www.w3.org/2000/svg">
<path d="M22.706 2.10072C21.871 2.45572 20.974 2.69558 20.031 2.804C21.004 2.2454 21.7319 1.36624 22.079 0.330547C21.1648 0.851516 20.1643 1.21822 19.121 1.41472C18.4194 0.695966 17.4901 0.219564 16.4773 0.0594784C15.4646 -0.100607 14.4251 0.0645802 13.5202 0.529395C12.6154 0.994209 11.8958 1.73264 11.4732 2.63005C11.0505 3.52746 10.9485 4.53364 11.183 5.49237C9.33068 5.40313 7.51863 4.94121 5.86442 4.13658C4.21022 3.33194 2.75084 2.20258 1.581 0.821783C1.181 1.4838 0.951 2.25136 0.951 3.06881C0.950553 3.8047 1.13943 4.52932 1.50088 5.17837C1.86232 5.82743 2.38516 6.38085 3.023 6.78954C2.28328 6.76695 1.55987 6.57518 0.913 6.23018V6.28775C0.912925 7.31986 1.28503 8.32022 1.96618 9.11907C2.64733 9.91792 3.59557 10.4661 4.65 10.6705C3.96378 10.8487 3.24434 10.8749 2.546 10.7473C2.8435 11.6353 3.42299 12.4119 4.20337 12.9683C4.98374 13.5247 5.92592 13.833 6.898 13.8501C5.24783 15.093 3.20989 15.7672 1.112 15.7642C0.740381 15.7643 0.369076 15.7435 0 15.7018C2.12948 17.0155 4.60834 17.7127 7.14 17.71C15.71 17.71 20.395 10.8998 20.395 4.99345C20.395 4.80157 20.39 4.60776 20.381 4.41587C21.2923 3.78357 22.0789 3.00059 22.704 2.1036L22.706 2.10072Z" fill="#48773E"/>
</svg>
