<svg width="46" height="46" viewBox="0 0 46 46" fill="none" xmlns="http://www.w3.org/2000/svg">
<path d="M44.0832 5.75023C42.2477 7.0449 40.2155 8.03511 38.0648 8.68273C36.9105 7.35546 35.3764 6.41472 33.67 5.98776C31.9636 5.56079 30.1672 5.66819 28.5238 6.29543C26.8804 6.92268 25.4693 8.0395 24.4814 9.49485C23.4934 10.9502 22.9763 12.6739 22.9998 14.4327V16.3494C19.6316 16.4367 16.2939 15.6897 13.2843 14.1748C10.2746 12.66 7.68628 10.4243 5.74984 7.6669C5.74984 7.6669 -1.91683 24.9169 15.3332 32.5836C11.3858 35.263 6.68355 36.6065 1.9165 36.4169C19.1665 46.0002 40.2498 36.4169 40.2498 14.3752C40.2481 13.8414 40.1967 13.3088 40.0965 12.7844C42.0527 10.8553 43.4331 8.4196 44.0832 5.75023V5.75023Z" stroke="white" stroke-width="2" stroke-linecap="round" stroke-linejoin="round"/>
</svg>
